<?xml version="1.0" encoding="UTF-8"?>
<svg version="1.1" xmlns="http://www.w3.org/2000/svg" width="2000" height="1312">
<path d="M0 0 C1.47379875 -0.01052147 1.47379875 -0.01052147 2.97737122 -0.02125549 C6.12819056 -0.03865097 9.27882191 -0.04510722 12.4296875 -0.046875 C13.50670929 -0.04754974 14.58373108 -0.04822449 15.69338989 -0.04891968 C31.45032908 -0.03322128 46.76388689 0.38377622 62.3046875 3.203125 C63.30790039 3.37473145 64.31111328 3.54633789 65.34472656 3.72314453 C130.34447398 14.97890395 198.57077141 47.69578004 239.3046875 101.203125 C239.78663574 101.83573242 240.26858398 102.46833984 240.76513672 103.12011719 C297.15045329 177.79683748 310.15703022 273.75016607 322.203125 445.28515625 C322.26366405 446.99837413 322.26366405 446.99837413 322.3254261 448.74620247 C323.29177133 476.43385145 323.99119464 504.12919574 324.70703125 531.82421875 C324.73792052 533.01792194 324.76880979 534.21162513 324.8006351 535.44150114 C325.38313638 557.95893002 325.96027465 580.47649773 326.52939677 602.99426883 C328.32772687 675.74723619 328.32772687 675.74723619 330.87890625 748.4765625 C330.90853982 749.20946463 330.93817338 749.94236677 330.96870494 750.69747806 C334.38034572 902.32364283 334.38034572 902.32364283 401.3828125 1058.62109375 C417.39016042 1071.79787405 434.32336006 1074.21543485 454.3046875 1073.203125 C478.29210256 1070.82407585 498.60944775 1055.57242538 514.10546875 1038.02734375 C517.7134694 1033.39397879 520.57112228 1028.38965768 523.3046875 1023.203125 C529.16429429 1024.47635732 533.67053397 1026.24253927 537.3046875 1031.203125 C539.10047118 1038.27673953 537.9048373 1046.03107839 537.3046875 1053.203125 C537.21429199 1054.4185498 537.12389648 1055.63397461 537.03076172 1056.88623047 C531.46772849 1130.00436168 504.59984238 1199.33582089 448.59716797 1248.70849609 C444.63426772 1252.05780092 440.51262229 1255.16964849 436.3046875 1258.203125 C435.64549316 1258.67959473 434.98629883 1259.15606445 434.30712891 1259.64697266 C409.46348871 1277.37574011 382.05740809 1289.60627111 352.3046875 1296.203125 C351.14042236 1296.47213623 351.14042236 1296.47213623 349.95263672 1296.74658203 C326.5503236 1301.94308243 297.60518526 1301.79766675 274.3046875 1296.203125 C273.34916992 1295.97737793 272.39365234 1295.75163086 271.40917969 1295.51904297 C221.65544517 1283.41235294 175.19703287 1253.2383605 144.3046875 1212.203125 C143.39271465 1211.030637 142.47989094 1209.85881051 141.56640625 1208.6875 C97.81524803 1152.06073362 75.92609258 1084.66391773 64.8671875 1014.765625 C64.74131256 1013.97324432 64.61543762 1013.18086365 64.48574829 1012.36447144 C63.01234977 1002.98928938 61.88829718 993.6831297 61.3046875 984.203125 C60.36354599 984.21499847 59.42240448 984.22687195 58.45274353 984.23910522 C48.72234039 984.30724952 39.07848729 983.95538913 29.36905098 983.33827591 C26.77120365 983.17334575 24.17302231 983.01488261 21.57469177 982.85775757 C15.09583795 982.4647393 8.6176185 982.06166679 2.1394043 981.65826416 C-44.23032817 978.77377678 -90.46032123 976.85116034 -136.92919922 976.94238281 C-142.8073968 976.95385626 -148.6854146 976.94695071 -154.56360626 976.93547821 C-178.90175273 976.89551064 -203.12732106 977.17399739 -227.41699219 978.77441406 C-233.52064339 979.17167441 -239.58036476 979.3175268 -245.6953125 979.203125 C-245.92460449 980.19900635 -246.15389648 981.1948877 -246.39013672 982.22094727 C-248.21329855 990.08287781 -250.11247939 997.91879666 -252.140625 1005.73046875 C-267.82320702 1066.33966001 -279.47019856 1128.04827019 -280.31762695 1190.8046875 C-280.7098275 1213.26683059 -286.33788392 1232.13266885 -302.6953125 1248.203125 C-331.94492672 1274.20278208 -369.56772081 1289.25860071 -407.6953125 1296.203125 C-408.53094727 1296.36683594 -409.36658203 1296.53054688 -410.22753906 1296.69921875 C-424.3546514 1299.39646623 -438.55032414 1299.51378381 -452.8828125 1299.578125 C-453.81112885 1299.58607086 -454.73944519 1299.59401672 -455.69589233 1299.60220337 C-472.8915997 1299.71517688 -489.61302165 1297.99667363 -506.2578125 1293.515625 C-507.20978516 1293.26216309 -508.16175781 1293.00870117 -509.14257812 1292.74755859 C-538.28558607 1284.65605389 -567.39748766 1268.96757044 -582.72265625 1241.98828125 C-613.08372729 1186.26535168 -591.68855471 1101.03070061 -574.97601318 1043.73724365 C-559.97324873 993.26585733 -537.79112619 945.40235418 -514.6953125 898.203125 C-514.16760254 897.12434082 -513.63989258 896.04555664 -513.09619141 894.93408203 C-506.49934492 881.49109572 -499.59830319 868.25118917 -492.33300781 855.15771484 C-490.5688718 851.9750115 -488.81547474 848.78651946 -487.0625 845.59765625 C-479.19104594 831.31208581 -471.11165069 817.17454626 -462.6953125 803.203125 C-462.12425781 802.25453613 -461.55320312 801.30594727 -460.96484375 800.32861328 C-454.04400806 788.85308854 -447.00726588 777.45756391 -439.82421875 766.14453125 C-436.25245955 760.51536527 -432.72439049 754.85911064 -429.1953125 749.203125 C-423.20980104 739.61508193 -417.19166558 730.04837797 -411.14697266 720.49755859 C-409.16380041 717.36303912 -407.18326663 714.22685665 -405.20288086 711.09057617 C-404.19735578 709.49818269 -403.19165899 707.90589762 -402.18579102 706.3137207 C-399.73350774 702.43196576 -397.28283023 698.54921797 -394.8359375 694.6640625 C-388.52305669 684.6456086 -382.15901853 674.66084542 -375.76977539 664.69091797 C-371.29292853 657.70415375 -366.83243042 650.70725583 -362.3828125 643.703125 C-356.5360778 634.50428425 -350.63118003 625.34462758 -344.6953125 616.203125 C-336.30173117 603.27048426 -327.97553819 590.29543435 -319.67675781 577.30175781 C-317.84060608 574.43033867 -315.99925997 571.56233253 -314.15625 568.6953125 C-266.04724365 493.70226639 -214.3856444 411.88823536 -185.6953125 290.203125 C-185.51742187 289.12877197 -185.51742187 289.12877197 -185.3359375 288.03271484 C-181.26864567 263.17502503 -178.62320127 225.91728193 -193.140625 204.0234375 C-196.13604707 200.24387352 -199.01599763 197.64945869 -203.6953125 196.203125 C-216.29621341 194.85363093 -224.92791289 198.25314166 -234.83984375 205.81640625 C-268.44505155 233.90502727 -281.40989099 275.61321618 -289.6953125 317.203125 C-301.27461204 316.25110336 -301.27461204 316.25110336 -306.3828125 315.140625 C-307.21167969 314.96402344 -308.04054688 314.78742188 -308.89453125 314.60546875 C-309.48878906 314.47269531 -310.08304687 314.33992188 -310.6953125 314.203125 C-312.35843167 242.6890008 -291.05637762 173.75189202 -245.6953125 118.203125 C-245.26766602 117.67106445 -244.84001953 117.13900391 -244.39941406 116.59082031 C-237.6405688 108.21517331 -230.21585503 100.51762766 -222.6328125 92.890625 C-221.72297607 91.97152344 -220.81313965 91.05242187 -219.87573242 90.10546875 C-213.79009614 84.04773568 -207.43370034 78.52128143 -200.6953125 73.203125 C-200.08743896 72.71561768 -199.47956543 72.22811035 -198.85327148 71.72583008 C-185.30128544 60.89577848 -170.7538892 51.77464939 -155.6953125 43.203125 C-154.56480469 42.54828125 -153.43429687 41.8934375 -152.26953125 41.21875 C-107.13568836 16.02292537 -51.61125905 0.24826641 0 0 Z M-2.6953125 267.203125 C-2.86546875 268.47800781 -3.035625 269.75289063 -3.2109375 271.06640625 C-11.59273317 333.45088777 -24.94540618 394.37097318 -44.6953125 454.203125 C-45.22485215 455.81784486 -45.75431192 457.43259091 -46.28369141 459.04736328 C-57.61574857 493.50081006 -70.92551533 527.14089825 -84.72607422 560.66854858 C-90.29512048 574.19829109 -95.78630135 587.75867774 -101.2578125 601.328125 C-102.15004096 603.5400488 -103.04229348 605.7519629 -103.93457031 607.96386719 C-105.25387781 611.23453858 -106.57311657 614.50523761 -107.89212036 617.77603149 C-112.10991167 628.23424649 -116.33835371 638.68813619 -120.5703125 649.140625 C-120.91716095 649.99738831 -121.2640094 650.85415161 -121.62136841 651.73687744 C-126.78140405 664.48242971 -131.94660452 677.22588621 -137.11395264 689.96847534 C-142.50553919 703.26405688 -147.88987566 716.56256456 -153.27127075 729.86227417 C-157.42343745 740.12403564 -161.57894504 750.38442218 -165.74208069 760.64173889 C-168.78736423 768.14518315 -171.82846573 775.65031469 -174.86669922 783.15661621 C-175.68140153 785.16876769 -176.49688869 787.18059964 -177.3125 789.19238281 C-178.75701842 792.75668763 -180.19543578 796.32343368 -181.6328125 799.890625 C-182.05232178 800.92453369 -182.47183105 801.95844238 -182.90405273 803.02368164 C-183.27731689 803.95301514 -183.65058105 804.88234863 -184.03515625 805.83984375 C-184.35863037 806.64123779 -184.68210449 807.44263184 -185.01538086 808.26831055 C-185.80582692 810.17580365 -185.80582692 810.17580365 -185.6953125 812.203125 C-179.99829563 811.0999624 -174.32505703 809.91028384 -168.66015625 808.65234375 C-133.29213051 800.84741403 -97.93397537 796.24922259 -61.76171875 794.19140625 C-61.01428154 794.14885334 -60.26684433 794.10630043 -59.49675751 794.06245804 C-38.23112563 792.87849632 -16.94044131 792.53553215 4.35144043 792.13867188 C9.78386733 792.03598967 15.21614286 791.92582571 20.6484375 791.81640625 C31.20038995 791.60491004 41.75247696 791.40129721 52.3046875 791.203125 C52.41315804 776.6717758 52.07607569 762.17538326 51.60546875 747.65234375 C51.52939996 745.24376901 51.45348694 742.83518935 51.37771606 740.42660522 C51.15083216 733.25872062 50.91788294 726.09103946 50.68354177 718.92339563 C50.61707188 716.88708283 50.55090673 714.85076036 50.48485184 712.81443405 C49.11701094 670.64886188 47.62746409 628.4883465 45.97866088 586.33280152 C45.79685591 581.68072457 45.61791037 577.02854375 45.44009399 572.37631226 C43.2178917 513.00025363 43.2178917 513.00025363 37.9921875 453.828125 C37.88863953 452.90194366 37.78509155 451.97576233 37.67840576 451.02151489 C35.46987016 431.32304271 32.65382867 411.73892544 29.3046875 392.203125 C29.1746936 391.44249756 29.04469971 390.68187012 28.9107666 389.89819336 C22.52772675 352.73858262 13.60147193 316.29003424 2.7734375 280.18359375 C2.44281563 279.07720802 2.44281563 279.07720802 2.10551453 277.94847107 C0.99638399 274.29086453 -0.20719084 270.72452606 -1.6953125 267.203125 C-2.0253125 267.203125 -2.3553125 267.203125 -2.6953125 267.203125 Z " fill="#FFFFFF" transform="translate(595.6953125,1.796875)"/>
<path d="M0 0 C0.6642952 -0.00044186 1.32859039 -0.00088371 2.01301575 -0.00133896 C23.89163324 -0.00895566 45.52667284 0.51574574 67.25 3.25 C67.91789551 3.3325 68.58579102 3.415 69.27392578 3.5 C123.68999733 10.26460846 176.77178397 27.19083474 218.25 64.25 C218.76933105 64.71293457 219.28866211 65.17586914 219.82373047 65.65283203 C223.34420435 68.80525142 226.80810377 72.01199607 230.25 75.25 C231.41982422 76.33861328 231.41982422 76.33861328 232.61328125 77.44921875 C256.17443316 100.08968622 275.56657524 132.51438339 276.453125 165.83984375 C276.89408066 201.29770212 265.28711851 228.79075221 240.71728516 254.13183594 C220.00390457 275.0740698 196.04335688 288.90089589 168.25 298.25 C167.56389648 298.48315918 166.87779297 298.71631836 166.17089844 298.95654297 C144.60116268 306.15527038 121.80455023 309.13117921 99.25 311.25 C98.11908936 311.35803955 98.11908936 311.35803955 96.96533203 311.46826172 C84.09839558 312.63854762 71.15573434 312.35034363 58.25 312.25 C58.22812622 311.09890747 58.22812622 311.09890747 58.20581055 309.92456055 C57.6605427 283.97713276 56.11928254 258.41264186 49.25 233.25 C49.04036621 232.47398437 48.83073242 231.69796875 48.61474609 230.8984375 C43.39863124 212.20233991 34.27138623 194.67873437 21.25 180.25 C20.7957666 179.74210938 20.3415332 179.23421875 19.87353516 178.7109375 C1.04476853 158.00394001 -25.06858473 141.12613536 -53.56054688 139.04467773 C-56.39798037 138.94803692 -59.22350577 138.92088361 -62.0625 138.9375 C-63.56744019 138.94487183 -63.56744019 138.94487183 -65.1027832 138.95239258 C-83.48559603 139.24122092 -101.25969486 145.28483893 -115.22265625 157.62890625 C-130.8947944 174.26301708 -136.10892613 194.94274119 -135.75 217.25 C-134.64611017 248.13382686 -122.08012151 273.27597823 -100.75 295.25 C-99.83992188 296.20003906 -98.92984375 297.15007812 -97.9921875 298.12890625 C-91.93356617 304.33424633 -85.57510456 309.90739766 -78.75 315.25 C-77.76515625 316.04019531 -76.7803125 316.83039063 -75.765625 317.64453125 C-51.71338411 336.76949554 -23.81987057 350.9620112 3.25 365.25 C4.30799805 365.81058105 5.36599609 366.37116211 6.45605469 366.94873047 C27.80771038 378.23257275 49.52881978 388.75501157 71.23336792 399.33807373 C122.80567947 424.48908882 175.33889124 451.62089148 218.25 490.25 C219.01183594 490.9203125 219.77367187 491.590625 220.55859375 492.28125 C230.66855925 501.23984657 239.90483778 510.62227598 248.25 521.25 C249.05179688 522.22324219 249.85359375 523.19648437 250.6796875 524.19921875 C277.38556208 557.35277333 285.43913134 600.57844432 281.25 642.25 C273.80951361 702.76069306 238.06536588 757.22162582 191.1875 795.375 C190.41277344 795.97570313 189.63804687 796.57640625 188.83984375 797.1953125 C186.6683935 798.91806187 184.60793015 800.6933877 182.5390625 802.53515625 C178.09338736 806.44780799 173.43414118 810.02453914 168.6875 813.5625 C167.36335083 814.54959961 167.36335083 814.54959961 166.01245117 815.55664062 C142.57615959 832.91654175 117.31699438 847.23082758 91.25 860.25 C89.89044189 860.93570068 89.89044189 860.93570068 88.50341797 861.63525391 C72.83541474 869.50349113 56.61248071 875.99297025 40.25 882.25 C39.09081055 882.69375977 37.93162109 883.13751953 36.73730469 883.59472656 C-12.94023708 902.40743905 -65.06352165 913.29355487 -117.75 919.25 C-118.86686188 919.37855377 -118.86686188 919.37855377 -120.00628662 919.50970459 C-143.99579346 922.24294022 -167.99675742 922.53309864 -192.1133194 922.55962753 C-194.45948512 922.56245124 -196.80563409 922.56797433 -199.15179443 922.57363892 C-218.77296222 922.60795733 -238.19504452 922.03270661 -257.75 920.25 C-258.56432495 920.17683563 -259.3786499 920.10367126 -260.21765137 920.02828979 C-264.73808649 919.61204518 -269.24391816 919.11566081 -273.75 918.5625 C-274.74403336 918.44086487 -274.74403336 918.44086487 -275.75814819 918.31677246 C-338.54674949 910.51744821 -403.54351632 890.4372295 -452.75 849.25 C-453.35215332 848.74936035 -453.95430664 848.2487207 -454.57470703 847.73291016 C-489.55514022 818.55357418 -516.70741194 777.69130809 -521.55151367 731.58227539 C-524.70058465 694.57972306 -513.44086572 657.18120511 -490.125 628.25 C-488.68040018 626.5714157 -487.2226335 624.90404488 -485.75 623.25 C-485.0796875 622.47140625 -484.409375 621.6928125 -483.71875 620.890625 C-481.44455829 618.29397327 -479.11379437 615.76550057 -476.75 613.25 C-476.22696289 612.69296387 -475.70392578 612.13592773 -475.16503906 611.56201172 C-460.27462738 595.83871784 -443.69397239 583.70090167 -424.75 573.25 C-424.07098633 572.87536621 -423.39197266 572.50073242 -422.69238281 572.11474609 C-387.95740572 553.43220289 -345.34993726 546.11652761 -306.32421875 546.23046875 C-305.40104858 546.23187866 -304.47787842 546.23328857 -303.5267334 546.23474121 C-301.26781553 546.23839524 -299.00891122 546.24351661 -296.75 546.25 C-296.72129822 546.84514908 -296.69259644 547.44029816 -296.6630249 548.05348206 C-294.81620574 589.30538501 -294.81620574 589.30538501 -289.75 630.25 C-289.57243164 631.32910645 -289.39486328 632.40821289 -289.21191406 633.52001953 C-281.17366065 680.96864015 -260.29192886 735.46760658 -219.6015625 764.49609375 C-189.11910114 784.97144016 -156.34846108 795.15143631 -119.62304688 788.88720703 C-104.70528313 785.95666535 -90.41271925 778.92719496 -78.75 769.25 C-77.82703125 768.50105469 -76.9040625 767.75210938 -75.953125 766.98046875 C-61.28574533 754.44026431 -51.12930158 736.87421374 -49.51806641 717.45458984 C-48.00096694 688.30426547 -56.93931144 664.88683214 -76.16748047 643.11035156 C-81.86685486 636.83792732 -87.96533176 631.34490181 -94.75 626.25 C-95.6169751 625.59523682 -95.6169751 625.59523682 -96.50146484 624.92724609 C-132.05243196 598.2340957 -170.49754241 574.95114958 -209.02148438 552.84619141 C-236.2878118 537.19743852 -262.77823606 520.61498875 -288.9375 503.1875 C-289.82438507 502.59666626 -290.71127014 502.00583252 -291.62503052 501.39709473 C-301.15172903 495.04544825 -310.65488434 488.66002551 -320.11328125 482.20703125 C-320.88053024 481.68479477 -321.64777924 481.16255829 -322.4382782 480.62449646 C-329.07722494 476.081043 -335.46186342 471.27036711 -341.75 466.25 C-342.6678125 465.52554687 -343.585625 464.80109375 -344.53125 464.0546875 C-361.36407433 450.55940593 -377.48411986 435.2690384 -390.75 418.25 C-391.68711793 417.11081812 -392.62743004 415.97425903 -393.5703125 414.83984375 C-417.07609453 386.39146996 -432.1037055 352.97277719 -436.75 316.25 C-436.8442627 315.55656494 -436.93852539 314.86312988 -437.03564453 314.14868164 C-438.07138421 305.49126907 -437.99374641 296.76898509 -438 288.0625 C-438.00067474 287.2181842 -438.00134949 286.37386841 -438.00204468 285.50396729 C-437.95916287 251.65299029 -431.0252854 219.13404318 -414.75 189.25 C-414.42918457 188.64994141 -414.10836914 188.04988281 -413.77783203 187.43164062 C-404.55900345 170.25811942 -392.55235311 155.28006452 -379.31640625 141.0390625 C-377.17501785 138.71189155 -375.10657371 136.34941385 -373.0625 133.9375 C-370.26868493 130.72197699 -367.2658532 127.95483868 -364.015625 125.20703125 C-361.37144043 122.92300285 -358.85328634 120.52347453 -356.3125 118.125 C-348.90638202 111.25503921 -340.87321223 105.23887091 -332.75 99.25 C-332.06808594 98.7432373 -331.38617187 98.23647461 -330.68359375 97.71435547 C-311.93103257 83.84414464 -291.5604626 72.69993322 -270.75 62.25 C-269.77224609 61.7564502 -268.79449219 61.26290039 -267.78710938 60.75439453 C-198.69979069 26.08663974 -121.608368 7.27962582 -44.75 1.25 C-43.07284912 1.10860596 -43.07284912 1.10860596 -41.36181641 0.96435547 C-27.59567114 -0.06154444 -13.79743528 0.00627795 0 0 Z " fill="#FFFFFF" transform="translate(1717.75,387.75)"/>
</svg>
